# xmcd
#
# Track frame offsets: 
#        150
#        18135
#        32899
#        52120
#        66403
#        81815
#        100190
#        118284
#        137673
#        155632
#
# Disc length: 2395 seconds
#
# Revision: 0
# Processed by: cddbd v1.5.2PL0 Copyright (c) Steve Scherf et al.
# Submitted via: ExactAudioCopyFreeDBPlugin 1.0
#
DISCID=8909590a
DTITLE=Paul Cauthen - Room 41
DYEAR=2019
DGENRE=
TTITLE0=Holy Ghost Fire
TTITLE1=Prayed For Rain
TTITLE2=Cocaine Country Dancing
TTITLE3=Slow Down
TTITLE4=Big Velvet 
TTITLE5=Can't Be Alone
TTITLE6=Freak
TTITLE7=Angel
TTITLE8=Give 'Em Peace
TTITLE9=Lay Me Down
EXTD=
EXTT0=
EXTT1=
EXTT2=
EXTT3=
EXTT4=
EXTT5=
EXTT6=
EXTT7=
EXTT8=
EXTT9=
PLAYORDER=
